<?xml version="1.0" encoding="UTF-8" standalone="no"?>
<!DOCTYPE svg PUBLIC "-//W3C//DTD SVG 1.1//EN" "http://www.w3.org/Graphics/SVG/1.1/DTD/svg11.dtd">
<svg width="100%" height="100%" viewBox="0 0 1074 324" version="1.1" xmlns="http://www.w3.org/2000/svg" xmlns:xlink="http://www.w3.org/1999/xlink" xml:space="preserve" xmlns:serif="http://www.serif.com/" style="fill-rule:evenodd;clip-rule:evenodd;stroke-linejoin:round;stroke-miterlimit:2;">
    <g transform="matrix(1,0,0,1,-1295.748369,-999.684089)">
        <g transform="matrix(1,0,0,1,1183.65458,86.125516)">
            <g transform="matrix(0.440576,0,0,0.440576,85.287437,126.696279)">
                <g transform="matrix(1.72286,0,0,1.72286,12.283349,1780.592082)">
                    <path d="M29.025,210.787C104.379,174.417 124.385,176.617 110.911,137.989C106.411,125.088 100.271,110.039 109.412,119.559C146.005,157.671 184.855,144.268 232.902,107.505C252.341,92.631 282.952,66.433 272.916,19.086C268.94,0.327 275.267,0.302 282.705,13.496C300.944,45.848 331.363,45.689 373.987,7.197C382.822,-0.781 386.03,4.811 383.178,8.495C376.74,16.811 362.415,31.184 360.366,48.457C354.691,96.299 442.799,182.666 458.906,40.951C460.166,29.87 459.606,18.283 472.964,37.973C534.995,129.409 586.466,89.237 647.794,41.33C656.549,34.491 668.068,28.433 659.365,47.633C608.605,159.618 626.799,203.973 725.872,273.331C735.808,280.287 730.301,282.231 723.182,280.765C572.45,249.732 627.803,364.189 642.577,405.07C643.556,407.78 644.665,414.179 637.247,408.062C508.244,301.679 444.461,414.879 439.643,423.018C433.303,433.73 425.877,431.51 426.837,419.357C429.063,391.181 466.376,285.346 332.278,311.961C322.211,313.959 327.646,309.304 329.593,307.161C411.602,216.857 406.313,149.622 347.357,145.573C289.068,141.569 158.682,195.692 252.333,289.191C254.363,291.218 254.057,293.1 251.004,291.565C196.29,264.055 146.588,246.224 121.504,314.806C120.263,318.197 116.912,316.17 117.394,314.264C141.392,219.328 78.154,218.714 77.781,215.682C77.538,213.711 147.608,198.432 29.326,211.884C26.95,212.154 29.025,210.787 29.025,210.787L585.013,159.935C538.495,106.427 473.47,130.268 451.774,151.229C447.409,155.446 427.647,178.292 420.129,214.707C411.182,258.042 421.492,346.039 541.51,327.532C577.308,322.012 612.55,289.647 615.608,237.945C618.412,190.534 585.141,160.112 585.013,159.935L29.025,210.787L139.142,173.379C94.214,204.468 140.649,273.993 186.304,244.383C235.341,212.579 193.811,133.017 139.142,173.379L29.025,210.787L290.47,55.827C266.359,75.116 280.66,114.777 303.141,118.089C313.687,119.643 327.883,120.147 343.538,108.998C377.359,77.252 329.699,27.074 290.47,55.827L29.025,210.787L220.702,171.782C235.535,171.098 270.608,152.914 277.308,130.357C281.526,116.152 268.78,111.305 260.298,113.522C241.839,118.345 215.082,134.441 207.402,155.486C205.38,161.026 206.367,171.453 220.702,171.782L29.025,210.787Z" style="fill:rgb(155,178,217);fill-opacity:0.98;"/>
                    <g transform="matrix(1,0,0,1,-5.004527,0.909895)">
                        <path d="M518.229,189.881C527.866,219.852 524.559,215.876 553.515,224.019C518.556,233.081 529.922,232.103 518.329,266.016C508.259,222.201 516.136,235.001 483.373,225.734C511.009,214.943 510.732,219.143 518.229,189.881Z" style="fill:rgb(155,178,217);fill-opacity:0.96;"/>
                    </g>
                </g>
                <g transform="matrix(1.072755,0,0,1.072755,-685.466974,299.687907)">
                    <g transform="matrix(0.512555,0,0,0.512555,808.594488,726.473997)">
                        <path d="M2444.158,1875.701C2438.861,1831.737 2425.089,1803.664 2386.952,1789.892C2435.683,1775.59 2460.578,1744.868 2460.578,1698.786C2460.578,1634.164 2414.496,1608.209 2361.527,1601.853C2341.929,1599.734 2327.097,1599.205 2304.321,1599.205L2159.187,1599.205L2159.187,1964.688L2254.53,1964.688L2254.53,1825.91L2275.718,1825.91C2286.312,1825.91 2295.316,1825.91 2305.91,1826.44C2330.276,1828.029 2346.166,1851.335 2350.933,1891.592C2354.111,1917.546 2359.408,1938.734 2367.883,1964.688L2471.702,1964.688C2457.4,1942.971 2448.925,1917.017 2444.158,1875.701ZM2254.53,1757.051L2254.53,1673.361L2291.608,1673.361C2301.672,1673.361 2310.147,1673.361 2317.033,1673.89C2341.399,1676.009 2360.997,1684.484 2360.997,1715.206C2360.997,1745.928 2338.751,1754.403 2314.385,1756.522C2307.499,1757.051 2299.024,1757.051 2288.96,1757.051L2254.53,1757.051Z" style="fill:rgb(155,178,217);fill-rule:nonzero;"/>
                        <path d="M2680.398,1575.369L2762.5,1509.158L2677.75,1509.158L2629.548,1575.369L2680.398,1575.369ZM2800.637,1890.532L2615.777,1890.532L2615.777,1818.495L2784.747,1818.495L2784.747,1744.339L2615.777,1744.339L2615.777,1673.361L2795.34,1673.361L2795.34,1599.205L2520.433,1599.205L2520.433,1964.688L2800.637,1964.688L2800.637,1890.532Z" style="fill:rgb(155,178,217);fill-rule:nonzero;"/>
                        <path d="M2987.087,1591.789C2914.52,1591.789 2848.839,1631.515 2848.839,1701.964C2848.839,1775.061 2897.57,1801.015 2980.731,1821.673C3025.754,1832.796 3039.526,1849.217 3039.526,1868.285C3039.526,1888.414 3019.398,1902.185 2992.914,1902.185C2964.31,1902.185 2936.237,1887.354 2929.881,1852.924L2834.537,1852.924C2840.364,1935.026 2902.867,1972.104 2995.562,1972.104C3069.188,1972.104 3139.107,1935.026 3139.107,1861.929C3139.107,1805.782 3106.267,1765.526 3025.754,1746.457C2965.37,1732.156 2948.42,1717.854 2948.42,1694.548C2948.42,1672.301 2963.251,1661.708 2984.968,1661.708C3016.22,1661.708 3032.11,1681.836 3036.348,1712.028L3131.691,1712.028C3123.746,1644.228 3083.49,1591.789 2987.087,1591.789Z" style="fill:rgb(155,178,217);fill-rule:nonzero;"/>
                        <path d="M3470.691,1890.532L3285.83,1890.532L3285.83,1818.495L3454.8,1818.495L3454.8,1744.339L3285.83,1744.339L3285.83,1673.361L3465.394,1673.361L3465.394,1599.205L3190.487,1599.205L3190.487,1964.688L3470.691,1964.688L3470.691,1890.532Z" style="fill:rgb(155,178,217);fill-rule:nonzero;"/>
                        <path d="M3734.475,1869.874L3765.197,1964.688L3869.015,1964.688L3737.123,1599.205L3620.592,1599.205L3488.7,1964.688L3589.87,1964.688L3620.592,1869.874L3734.475,1869.874ZM3677.798,1683.425L3711.698,1795.718L3643.899,1795.718L3677.798,1683.425Z" style="fill:rgb(155,178,217);fill-rule:nonzero;"/>
                        <path d="M4212.252,1599.205L4116.909,1599.205L4116.909,1821.673C4116.909,1831.737 4116.909,1837.034 4116.379,1843.39C4113.731,1881.528 4092.013,1902.185 4050.168,1902.185C4008.323,1902.185 3986.606,1881.528 3983.957,1843.39C3983.428,1837.034 3983.428,1831.737 3983.428,1821.673L3983.428,1599.205L3888.084,1599.205L3888.084,1804.193C3888.084,1822.732 3888.084,1833.856 3889.673,1855.573C3893.911,1917.017 3937.345,1972.104 4050.168,1972.104C4162.991,1972.104 4206.426,1917.017 4210.663,1855.573C4212.252,1833.856 4212.252,1822.732 4212.252,1804.193L4212.252,1599.205Z" style="fill:rgb(155,178,217);fill-rule:nonzero;"/>
                    </g>
                    <g transform="matrix(0.518034,0,0,0.518034,809.933745,934.397791)">
                        <path d="M2382.185,1964.688L2514.077,1599.205L2412.907,1599.205L2324.979,1891.062L2237.58,1599.205L2133.762,1599.205L2265.654,1964.688L2382.185,1964.688Z" style="fill:rgb(155,178,217);fill-rule:nonzero;"/>
                        <rect x="2552.214" y="1599.205" width="95.344" height="365.484" style="fill:rgb(155,178,217);fill-rule:nonzero;"/>
                        <path d="M2941.534,1964.688L3073.426,1599.205L2972.256,1599.205L2884.328,1891.062L2796.929,1599.205L2693.111,1599.205L2825.003,1964.688L2941.534,1964.688Z" style="fill:rgb(155,178,217);fill-rule:nonzero;"/>
                        <path d="M3277.885,1869.874L3308.607,1964.688L3412.425,1964.688L3280.533,1599.205L3164.002,1599.205L3032.11,1964.688L3133.281,1964.688L3164.002,1869.874L3277.885,1869.874ZM3221.209,1683.425L3255.108,1795.718L3187.309,1795.718L3221.209,1683.425Z" style="fill:rgb(155,178,217);fill-rule:nonzero;"/>
                        <path d="M3796.448,1964.688L3796.448,1599.205L3701.105,1599.205L3701.105,1755.462C3701.105,1776.65 3701.634,1814.257 3704.283,1851.335L3565.505,1599.205L3446.855,1599.205L3446.855,1964.688L3542.199,1964.688L3542.199,1813.728C3542.199,1792.54 3542.199,1760.229 3539.021,1723.151L3671.972,1964.688L3796.448,1964.688Z" style="fill:rgb(155,178,217);fill-rule:nonzero;"/>
                        <path d="M4165.11,1673.361L4165.11,1599.205L3832.467,1599.205L3832.467,1673.361L3951.117,1673.361L3951.117,1964.688L4046.46,1964.688L4046.46,1673.361L4165.11,1673.361Z" style="fill:rgb(155,178,217);fill-rule:nonzero;"/>
                    </g>
                </g>
            </g>
        </g>
    </g>
</svg>
